<?xml version="1.0" encoding="UTF-8"?>
<!-- Generated by Pixelmator Pro 4.3 -->
<svg viewBox="0 0 417 417" xmlns="http://www.w3.org/2000/svg">
    <g id="patchwork-logo-2-copy">
        <g id="Group">
            <path id="leftRect" fill="red" stroke="none" d="M 8.47963 28.18042 L 77.544807 23.365906 C 81.359177 23.100006 84.666885 25.976624 84.93277 29.790985 L 110.931061 402.742981 C 111.19696 406.557312 108.320358 409.865051 104.505997 410.130951 L 35.440819 414.945435 C 31.62645 415.211334 28.318741 412.334717 28.052849 408.520386 L 2.054562 35.56839 C 1.788662 31.754028 4.665264 28.44632 8.47963 28.18042 Z"/>
            <path id="rightRect" fill="blue" stroke="none" d="M 312.367523 6.994934 L 381.432739 2.18045 C 385.247101 1.914551 388.55481 4.791138 388.820709 8.60553 L 414.819 381.557465 C 415.0849 385.371826 412.208282 388.679535 408.393921 388.945435 L 339.328705 393.759918 C 335.514374 394.025818 332.206665 391.149231 331.940765 387.334839 L 305.942474 14.382904 C 305.676575 10.568542 308.553192 7.260834 312.367523 6.994934 Z"/>
        </g>
        <path id="circle" fill="gold" stroke="none" d="M 285.740997 125.701141 C 285.731049 171.584564 248.52713 208.7724 202.643677 208.762482 C 156.760223 208.752563 119.572372 171.548615 119.582306 125.665192 C 119.592224 79.781738 156.796173 42.593903 202.679611 42.603821 C 248.56308 42.613739 285.750916 79.817688 285.740997 125.701141 Z"/>
        <path id="triangle" fill="black" stroke="none" d="M 125.518753 373.348145 L 158.21283 234.407776 C 159.088745 230.686005 162.816727 228.377228 166.538498 229.253128 L 305.478851 261.947205 C 311.482422 263.36084 312.782288 271.325684 307.536499 274.572937 L 135.902054 380.819214 C 130.656281 384.066467 124.105103 379.351685 125.518753 373.345367 Z"/>
    </g>
</svg>
